<svg width="721" height="235" viewBox="0 0 721 235" fill="none" xmlns="http://www.w3.org/2000/svg">
<path d="M155.378 0H211.919V191.202H155.81V167.032C154.515 168.758 152.357 170.916 149.336 173.074C146.315 175.232 142.43 177.822 137.251 180.843C132.072 183.864 125.166 186.022 116.534 188.18C107.902 189.907 98.4063 191.202 88.4794 191.202H85.0265C56.5405 191.202 34.9601 184.728 20.7171 171.779C6.90571 158.4 0 141.567 0 121.281V116.534C0 96.6799 6.90571 80.2788 20.2855 67.7622C33.6653 55.2456 54.814 48.7715 83.3001 48.7715H87.1845C116.102 48.7715 138.977 56.1089 155.378 70.3519V0ZM155.378 119.987V119.123C155.378 109.628 150.631 101.428 141.567 94.5218C132.503 87.6161 119.555 84.1633 104.017 84.1633H102.722C86.3213 84.1633 74.6679 87.6161 67.7622 94.0902C60.8565 100.564 57.4037 109.196 57.4037 119.123V119.987C57.4037 129.482 61.2881 137.682 68.6255 144.588C76.3944 151.494 87.6161 154.947 103.154 154.947H104.449C120.418 154.947 132.935 151.494 141.999 144.588C151.062 137.682 155.378 129.482 155.378 119.987Z" fill="white"/>
<path d="M292.199 117.829V191.202H236.09V48.772H291.767V75.9632C293.925 72.5103 296.946 69.0575 300.399 65.173C303.852 61.7202 309.895 57.8357 318.527 54.3829C327.159 50.4984 336.223 48.772 346.581 48.772H349.602C368.593 48.772 382.404 54.3829 391.468 65.173C400.532 75.9632 404.848 90.6378 404.848 109.197V116.966H350.466C350.466 107.47 348.308 99.7016 343.56 93.6591C338.812 87.6166 331.475 84.5953 321.548 84.5953H321.116C312.053 84.5953 304.715 87.6166 299.536 94.0907C294.788 100.565 292.199 108.334 292.199 117.829Z" fill="white"/>
<path d="M508.431 48.7719H564.54V71.2155C581.804 56.1093 604.679 48.3403 633.597 48.3403H638.344C653.45 48.3403 666.399 50.0668 677.189 53.5196C687.979 56.9725 696.611 62.1517 702.654 68.6258C708.696 75.0999 713.444 82.0056 716.033 90.2062C719.055 97.9751 720.349 107.039 720.349 116.534V121.282C720.349 130.777 719.055 139.409 716.033 147.178C713.012 154.947 708.265 162.284 702.222 169.19C695.748 176.096 687.116 181.275 675.894 185.16C664.672 189.044 651.724 190.771 636.618 190.771H632.733C615.469 190.771 600.794 188.181 589.141 183.002C577.488 177.822 569.287 173.075 565.403 168.327V234.794H509.294V48.7719H508.431ZM564.971 119.124V119.987C564.971 129.482 569.287 137.683 577.919 144.589C586.551 151.494 599.068 155.379 615.037 155.379H616.332C632.733 155.379 644.818 151.926 651.724 145.02C659.061 138.115 662.514 129.914 662.514 119.987V119.124C662.514 109.197 659.061 100.565 651.724 94.0906C644.387 87.6165 632.733 84.1637 615.901 84.1637H614.606C598.205 84.1637 585.688 87.6165 577.056 94.5222C568.856 100.996 564.971 109.197 564.971 119.124Z" fill="white"/>
<path d="M483.834 48.772C464.843 48.772 451.031 54.3829 441.968 65.173C432.904 75.9632 428.588 90.6378 428.588 109.197V116.966V190.771H484.697V103.586V48.772H483.834Z" fill="white"/>
<path d="M457.071 40.571C435.49 40.571 417.794 22.8752 417.794 1.29482C417.794 0.863213 417.363 0 416.5 0C415.636 0 415.205 0.431607 415.205 1.29482C415.205 22.8752 397.509 40.571 375.929 40.571C375.497 40.571 374.634 41.0026 374.634 41.8658C374.634 42.7291 375.065 43.1607 375.929 43.1607C397.509 43.1607 415.205 60.8565 415.205 82.4369C415.205 82.8685 415.636 83.7317 416.5 83.7317C417.363 83.7317 417.794 83.3001 417.794 82.4369C417.794 60.8565 435.49 43.1607 457.071 43.1607C457.502 43.1607 458.365 42.7291 458.365 41.8658C458.365 41.0026 457.502 40.571 457.071 40.571Z" fill="#FFB800"/>
</svg>
