<svg width="180" height="180" viewBox="0 0 180 180" fill="none" xmlns="http://www.w3.org/2000/svg">
<path d="M158.657 91.9037C159.717 91.9037 160.56 91.0603 160.56 89.9999C160.56 88.9396 159.717 88.0962 158.657 88.0962C121.834 88.0962 91.9042 58.1419 91.9042 21.3437C91.9042 20.2834 91.0608 19.4399 90.0005 19.4399C88.9401 19.4399 88.0967 20.2834 88.0967 21.3437C88.0967 58.166 58.1424 88.0962 21.3442 88.0962C20.2839 88.0962 19.4404 88.9396 19.4404 89.9999C19.4404 91.0603 20.2839 91.9037 21.3442 91.9037C58.1665 91.9037 88.0967 121.858 88.0967 158.656C88.0967 159.717 88.9401 160.56 90.0005 160.56C91.0608 160.56 91.9042 159.717 91.9042 158.656C91.9042 121.858 121.858 91.9037 158.657 91.9037Z" fill="#FDC500"/>
</svg>
